<?xml version="1.0" encoding="UTF-8"?>
<svg version="1.1" xmlns="http://www.w3.org/2000/svg" width="1600" height="1600">
<path d="M0 0 C528 0 1056 0 1600 0 C1600 528 1600 1056 1600 1600 C1072 1600 544 1600 0 1600 C0 1072 0 544 0 0 Z " fill="#000000" transform="translate(0,0)"/>
<path d="M0 0 C0.33 0.66 0.66 1.32 1 2 C1.66 2 2.32 2 3 2 C3 2.66 3 3.32 3 4 C3.66 4 4.32 4 5 4 C5 4.99 5 5.98 5 7 C5.66 7 6.32 7 7 7 C7.33 8.98 7.66 10.96 8 13 C8.99 13.33 9.98 13.66 11 14 C11.33 15.98 11.66 17.96 12 20 C12.66 20 13.32 20 14 20 C14 20.99 14 21.98 14 23 C14.66 23 15.32 23 16 23 C16.33 24.98 16.66 26.96 17 29 C17.66 29 18.32 29 19 29 C19 29.99 19 30.98 19 32 C19.66 32 20.32 32 21 32 C21 33.32 21 34.64 21 36 C21.66 36 22.32 36 23 36 C23.33 38.31 23.66 40.62 24 43 C24.66 43 25.32 43 26 43 C26 43.66 26 44.32 26 45 C26.66 45 27.32 45 28 45 C28 45.99 28 46.98 28 48 C28.66 48 29.32 48 30 48 C30 48.66 30 49.32 30 50 C30.66 50 31.32 50 32 50 C32 50.99 32 51.98 32 53 C32.66 53 33.32 53 34 53 C34.33 54.98 34.66 56.96 35 59 C35.66 59 36.32 59 37 59 C37 60.65 37 62.3 37 64 C37.66 64 38.32 64 39 64 C39 64.66 39 65.32 39 66 C39.66 66 40.32 66 41 66 C41.33 67.65 41.66 69.3 42 71 C42.66 71 43.32 71 44 71 C44 72.32 44 73.64 44 75 C44.66 75 45.32 75 46 75 C46.66 77.31 47.32 79.62 48 82 C48.66 82 49.32 82 50 82 C50.33 83.65 50.66 85.3 51 87 C51.66 87 52.32 87 53 87 C53 88.32 53 89.64 53 91 C53.66 91 54.32 91 55 91 C57.43160605 94.36683915 58 95.73350364 58 100 C58.66 100 59.32 100 60 100 C60 100.99 60 101.98 60 103 C60.66 103 61.32 103 62 103 C62 104.32 62 105.64 62 107 C62.66 107 63.32 107 64 107 C66.43160605 110.36683915 67 111.73350364 67 116 C67.66 116 68.32 116 69 116 C69 116.66 69 117.32 69 118 C69.66 118 70.32 118 71 118 C71.33 120.31 71.66 122.62 72 125 C72.66 125 73.32 125 74 125 C74 125.99 74 126.98 74 128 C74.66 128 75.32 128 76 128 C76 129.32 76 130.64 76 132 C77.32 132.33 78.64 132.66 80 133 C80 134.32 80 135.64 80 137 C80.66 137 81.32 137 82 137 C82.33 138.98 82.66 140.96 83 143 C83.66 143 84.32 143 85 143 C85 143.99 85 144.98 85 146 C85.66 146 86.32 146 87 146 C87.99 148.97 88.98 151.94 90 155 C90.66 155 91.32 155 92 155 C92 156.65 92 158.3 92 160 C92.66 160 93.32 160 94 160 C94 160.66 94 161.32 94 162 C94.66 162 95.32 162 96 162 C96 162.66 96 163.32 96 164 C96.66 164 97.32 164 98 164 C98.33 166.31 98.66 168.62 99 171 C99.66 171 100.32 171 101 171 C101 171.99 101 172.98 101 174 C101.66 174 102.32 174 103 174 C103 174.66 103 175.32 103 176 C103.66 176 104.32 176 105 176 C108 182.5 108 182.5 108 187 C108.66 187 109.32 187 110 187 C110.99 189.97 111.98 192.94 113 196 C113.66 196 114.32 196 115 196 C115 196.99 115 197.98 115 199 C115.66 199 116.32 199 117 199 C117 199.66 117 200.32 117 201 C117.66 201 118.32 201 119 201 C119.99 203.97 120.98 206.94 122 210 C122.66 210 123.32 210 124 210 C124 210.99 124 211.98 124 213 C124.66 213 125.32 213 126 213 C126 214.32 126 215.64 126 217 C126.66 217 127.32 217 128 217 C128 217.66 128 218.32 128 219 C128.66 219 129.32 219 130 219 C130.33 221.31 130.66 223.62 131 226 C131.66 226 132.32 226 133 226 C133.45375 227.0725 133.9075 228.145 134.375 229.25 C135.24912779 231.30482173 136.14422661 233.27327148 137.1875 235.25 C138 237 138 237 138 240 C138.66 240 139.32 240 140 240 C140 240.66 140 241.32 140 242 C140.66 242 141.32 242 142 242 C142.99 244.97 143.98 247.94 145 251 C145.66 251 146.32 251 147 251 C147 251.99 147 252.98 147 254 C147.66 254 148.32 254 149 254 C149 255.32 149 256.64 149 258 C149.66 258 150.32 258 151 258 C153.43160605 261.36683915 154 262.73350364 154 267 C154.66 267 155.32 267 156 267 C156 268.32 156 269.64 156 271 C156.598125 271.020625 157.19625 271.04125 157.8125 271.0625 C160 272 160 272 161.75 275.3125 C163 279 163 279 163 283 C163.66 283 164.32 283 165 283 C165 283.66 165 284.32 165 285 C165.66 285 166.32 285 167 285 C167.33 287.31 167.66 289.62 168 292 C168.66 292 169.32 292 170 292 C170 292.99 170 293.98 170 295 C170.66 295 171.32 295 172 295 C172 295.66 172 296.32 172 297 C172.66 297 173.32 297 174 297 C174 297.99 174 298.98 174 300 C174.66 300 175.32 300 176 300 C176 301.32 176 302.64 176 304 C176.66 304 177.32 304 178 304 C178.33 305.98 178.66 307.96 179 310 C179.66 310 180.32 310 181 310 C181 310.99 181 311.98 181 313 C181.66 313 182.32 313 183 313 C183.33 315.31 183.66 317.62 184 320 C184.66 320 185.32 320 186 320 C186 320.66 186 321.32 186 322 C186.66 322 187.32 322 188 322 C188 323.32 188 324.64 188 326 C188.66 326 189.32 326 190 326 C190 326.99 190 327.98 190 329 C190.66 329 191.32 329 192 329 C192 329.66 192 330.32 192 331 C192.66 331 193.32 331 194 331 C194.33 333.31 194.66 335.62 195 338 C195.66 338 196.32 338 197 338 C197 339.32 197 340.64 197 342 C197.66 342 198.32 342 199 342 C199.33 343.65 199.66 345.3 200 347 C200.66 347 201.32 347 202 347 C202 348.98 202 350.96 202 353 C202.62390625 353.07089844 203.2478125 353.14179687 203.890625 353.21484375 C206 354 206 354 207.046875 356.06640625 C207.27890625 356.89011719 207.5109375 357.71382812 207.75 358.5625 C207.99234375 359.38878906 208.2346875 360.21507812 208.484375 361.06640625 C208.65453125 361.70449219 208.8246875 362.34257813 209 363 C209.66 363 210.32 363 211 363 C211 363.66 211 364.32 211 365 C211.66 365 212.32 365 213 365 C213 365.99 213 366.98 213 368 C213.66 368 214.32 368 215 368 C215.33 370.31 215.66 372.62 216 375 C216.66 375 217.32 375 218 375 C218 376.32 218 377.64 218 379 C218.66 379 219.32 379 220 379 C220 379.66 220 380.32 220 381 C220.66 381 221.32 381 222 381 C222.33 383.31 222.66 385.62 223 388 C223.66 388 224.32 388 225 388 C225 388.66 225 389.32 225 390 C225.66 390 226.32 390 227 390 C227 390.99 227 391.98 227 393 C227.66 393 228.32 393 229 393 C229 394.32 229 395.64 229 397 C229.66 397 230.32 397 231 397 C232.485 401.455 232.485 401.455 234 406 C234.66 406 235.32 406 236 406 C236 406.99 236 407.98 236 409 C236.66 409 237.32 409 238 409 C239.485 413.455 239.485 413.455 241 418 C241.66 418 242.32 418 243 418 C243 418.99 243 419.98 243 421 C243.66 421 244.32 421 245 421 C245 422.32 245 423.64 245 425 C245.66 425 246.32 425 247 425 C247 425.66 247 426.32 247 427 C247.66 427 248.32 427 249 427 C249.33 429.31 249.66 431.62 250 434 C250.66 434 251.32 434 252 434 C252 434.66 252 435.32 252 436 C252.66 436 253.32 436 254 436 C254 437.65 254 439.3 254 441 C254.66 441 255.32 441 256 441 C259 445.38461538 259 445.38461538 259 448 C259.66 448 260.32 448 261 448 C261 449.32 261 450.64 261 452 C261.66 452 262.32 452 263 452 C263.33 453.65 263.66 455.3 264 457 C264.66 457 265.32 457 266 457 C267.4606285 459.64738916 268 460.89448334 268 464 C268.66 464 269.32 464 270 464 C270.28875 464.804375 270.5775 465.60875 270.875 466.4375 C271.73262568 469.1326468 271.73262568 469.1326468 274 470 C274.40729228 472.32156597 274.74438677 474.6568787 275 477 C275.66 477 276.32 477 277 477 C277 477.99 277 478.98 277 480 C277.66 480 278.32 480 279 480 C282 485.625 282 485.625 282 489 C282.66 489 283.32 489 284 489 C284 490.32 284 491.64 284 493 C284.66 493 285.32 493 286 493 C286.33 494.65 286.66 496.3 287 498 C287.99 498 288.98 498 290 498 C290.33 500.31 290.66 502.62 291 505 C291.66 505 292.32 505 293 505 C293 505.66 293 506.32 293 507 C293.66 507 294.32 507 295 507 C295.99 509.97 296.98 512.94 298 516 C101.65 516 -94.7 516 -297 516 C-297 515.34 -297 514.68 -297 514 C-296.34 514 -295.68 514 -295 514 C-295 513.34 -295 512.68 -295 512 C-294.34 512 -293.68 512 -293 512 C-292.67 509.69 -292.34 507.38 -292 505 C-291.34 505 -290.68 505 -290 505 C-289.9175 504.34 -289.835 503.68 -289.75 503 C-288.75240209 499.00960837 -286.92833317 495.61450357 -285 492 C-284.34 492 -283.68 492 -283 492 C-283 491.01 -283 490.02 -283 489 C-282.34 489 -281.68 489 -281 489 C-280.01 486.03 -279.02 483.06 -278 480 C-277.34 480 -276.68 480 -276 480 C-276 479.01 -276 478.02 -276 477 C-275.34 477 -274.68 477 -274 477 C-274 476.34 -274 475.68 -274 475 C-273.34 475 -272.68 475 -272 475 C-271.67 472.69 -271.34 470.38 -271 468 C-270.34 468 -269.68 468 -269 468 C-269 466.68 -269 465.36 -269 464 C-267.68 463.67 -266.36 463.34 -265 463 C-264.67 460.36 -264.34 457.72 -264 455 C-263.34 455 -262.68 455 -262 455 C-262 454.01 -262 453.02 -262 452 C-261.34 452 -260.68 452 -260 452 C-260 451.34 -260 450.68 -260 450 C-259.34 450 -258.68 450 -258 450 C-257.855625 449.401875 -257.71125 448.80375 -257.5625 448.1875 C-257.1127561 446.43849596 -256.57107659 444.71322977 -256 443 C-255.34 443 -254.68 443 -254 443 C-253.67 442.01 -253.34 441.02 -253 440 C-252.34 440 -251.68 440 -251 440 C-251 438.02 -251 436.04 -251 434 C-250.34 434 -249.68 434 -249 434 C-248.67 431.69 -248.34 429.38 -248 427 C-247.34 427 -246.68 427 -246 427 C-246 426.34 -246 425.68 -246 425 C-245.34 425 -244.68 425 -244 425 C-244 423.68 -244 422.36 -244 421 C-243.34 421 -242.68 421 -242 421 C-242 420.01 -242 419.02 -242 418 C-241.34 418 -240.68 418 -240 418 C-239.01 415.03 -238.02 412.06 -237 409 C-236.34 409 -235.68 409 -235 409 C-235 407.68 -235 406.36 -235 405 C-234.34 405 -233.68 405 -233 405 C-232.896875 404.21625 -232.79375 403.4325 -232.6875 402.625 C-232 400 -232 400 -229 398 C-228.27034634 395.43717258 -228.27034634 395.43717258 -228 393 C-227.34 393 -226.68 393 -226 393 C-225.87625 392.2575 -225.7525 391.515 -225.625 390.75 C-225.04513299 388.19858515 -224.26291261 386.2732427 -223 384 C-222.34 384 -221.68 384 -221 384 C-221 383.01 -221 382.02 -221 381 C-220.34 381 -219.68 381 -219 381 C-219 380.34 -219 379.68 -219 379 C-218.34 379 -217.68 379 -217 379 C-216.67 376.69 -216.34 374.38 -216 372 C-215.34 372 -214.68 372 -214 372 C-214 370.68 -214 369.36 -214 368 C-213.34 368 -212.68 368 -212 368 C-212 367.01 -212 366.02 -212 365 C-211.34 365 -210.68 365 -210 365 C-209.01 362.03 -208.02 359.06 -207 356 C-206.34 356 -205.68 356 -205 356 C-205 355.34 -205 354.68 -205 354 C-204.34 354 -203.68 354 -203 354 C-203 353.01 -203 352.02 -203 351 C-202.34 351 -201.68 351 -201 351 C-201 349.68 -201 348.36 -201 347 C-200.34 347 -199.68 347 -199 347 C-198.01 344.03 -197.02 341.06 -196 338 C-195.34 338 -194.68 338 -194 338 C-193.34 336.35 -192.68 334.7 -192 333 C-191.34 333 -190.68 333 -190 333 C-189.87625 332.113125 -189.7525 331.22625 -189.625 330.3125 C-189.05587264 327.29612498 -188.23385564 324.79673946 -187 322 C-186.34 322 -185.68 322 -185 322 C-184.67 320.02 -184.34 318.04 -184 316 C-183.34 316 -182.68 316 -182 316 C-182 315.01 -182 314.02 -182 313 C-181.34 313 -180.68 313 -180 313 C-180 312.01 -180 311.02 -180 310 C-179.34 310 -178.68 310 -178 310 C-178 308.68 -178 307.36 -178 306 C-177.34 306 -176.68 306 -176 306 C-175.01 303.03 -174.02 300.06 -173 297 C-172.34 297 -171.68 297 -171 297 C-170.34 295.35 -169.68 293.7 -169 292 C-168.34 292 -167.68 292 -167 292 C-166.690625 290.88625 -166.38125 289.7725 -166.0625 288.625 C-165 285 -165 285 -164 283 C-163.34 283 -162.68 283 -162 283 C-161.87625 282.071875 -161.7525 281.14375 -161.625 280.1875 C-161 277 -161 277 -159 274 C-158.34 274 -157.68 274 -157 274 C-157 272.68 -157 271.36 -157 270 C-156.34 270 -155.68 270 -155 270 C-154.87625 269.278125 -154.7525 268.55625 -154.625 267.8125 C-154.0095069 265.04278106 -153.11555626 262.6029646 -152 260 C-151.34 260 -150.68 260 -150 260 C-150 259.34 -150 258.68 -150 258 C-149.34 258 -148.68 258 -148 258 C-148 257.34 -148 256.68 -148 256 C-147.34 256 -146.68 256 -146 256 C-146 254.35 -146 252.7 -146 251 C-145.34 251 -144.68 251 -144 251 C-144 250.34 -144 249.68 -144 249 C-143.34 249 -142.68 249 -142 249 C-141.67 246.69 -141.34 244.38 -141 242 C-140.34 242 -139.68 242 -139 242 C-139 241.01 -139 240.02 -139 239 C-138.34 239 -137.68 239 -137 239 C-137 238.34 -137 237.68 -137 237 C-136.34 237 -135.68 237 -135 237 C-134.67 234.69 -134.34 232.38 -134 230 C-133.34 230 -132.68 230 -132 230 C-132 228.68 -132 227.36 -132 226 C-131.34 226 -130.68 226 -130 226 C-127.91620491 222.15299368 -126.50313376 218.09945571 -125 214 C-124.34 214 -123.68 214 -123 214 C-123 213.34 -123 212.68 -123 212 C-122.34 212 -121.68 212 -121 212 C-120.814375 210.6078125 -120.814375 210.6078125 -120.625 209.1875 C-120 206 -120 206 -118 203 C-117.34 203 -116.68 203 -116 203 C-116 201.68 -116 200.36 -116 199 C-115.34 199 -114.68 199 -114 199 C-113.67 197.35 -113.34 195.7 -113 194 C-112.01 194 -111.02 194 -110 194 C-109.67 191.69 -109.34 189.38 -109 187 C-108.34 187 -107.68 187 -107 187 C-107 185.68 -107 184.36 -107 183 C-106.34 183 -105.68 183 -105 183 C-104.67 181.35 -104.34 179.7 -104 178 C-103.34 178 -102.68 178 -102 178 C-101.34 175.69 -100.68 173.38 -100 171 C-99.34 171 -98.68 171 -98 171 C-98 170.34 -98 169.68 -98 169 C-97.34 169 -96.68 169 -96 169 C-96 168.01 -96 167.02 -96 166 C-95.34 166 -94.68 166 -94 166 C-93.67 164.02 -93.34 162.04 -93 160 C-92.34 160 -91.68 160 -91 160 C-91 159.01 -91 158.02 -91 157 C-90.34 157 -89.68 157 -89 157 C-88.67 154.36 -88.34 151.72 -88 149 C-87.34 149 -86.68 149 -86 149 C-86 148.01 -86 147.02 -86 146 C-85.34 146 -84.68 146 -84 146 C-84 145.34 -84 144.68 -84 144 C-83.34 144 -82.68 144 -82 144 C-81.855625 143.21625 -81.71125 142.4325 -81.5625 141.625 C-81 139 -81 139 -80 137 C-79.34 137 -78.68 137 -78 137 C-77.67 135.35 -77.34 133.7 -77 132 C-76.34 132 -75.68 132 -75 132 C-75 130.68 -75 129.36 -75 128 C-74.34 128 -73.68 128 -73 128 C-72.67 125.69 -72.34 123.38 -72 121 C-71.01 121 -70.02 121 -69 121 C-68.67 119.35 -68.34 117.7 -68 116 C-67.34 116 -66.68 116 -66 116 C-65.67 113.69 -65.34 111.38 -65 109 C-64.34 109 -63.68 109 -63 109 C-63 108.34 -63 107.68 -63 107 C-62.34 107 -61.68 107 -61 107 C-61 106.34 -61 105.68 -61 105 C-60.34 105 -59.68 105 -59 105 C-59 103.35 -59 101.7 -59 100 C-58.34 100 -57.68 100 -57 100 C-56.67 97.69 -56.34 95.38 -56 93 C-55.34 93 -54.68 93 -54 93 C-54 92.34 -54 91.68 -54 91 C-53.34 91 -52.68 91 -52 91 C-52 90.34 -52 89.68 -52 89 C-51.34 89 -50.68 89 -50 89 C-49.814375 88.2265625 -49.814375 88.2265625 -49.625 87.4375 C-48.81358372 84.27297649 -47.9054087 81.13875015 -47 78 C-46.34 78 -45.68 78 -45 78 C-45 77.01 -45 76.02 -45 75 C-44.34 75 -43.68 75 -43 75 C-43 74.34 -43 73.68 -43 73 C-42.34 73 -41.68 73 -41 73 C-40.67 70.69 -40.34 68.38 -40 66 C-39.34 66 -38.68 66 -38 66 C-38 64.68 -38 63.36 -38 62 C-37.34 62 -36.68 62 -36 62 C-36 61.01 -36 60.02 -36 59 C-35.34 59 -34.68 59 -34 59 C-34 58.34 -34 57.68 -34 57 C-33.34 57 -32.68 57 -32 57 C-32 56.34 -32 55.68 -32 55 C-31.34 55 -30.68 55 -30 55 C-29.87625 54.278125 -29.7525 53.55625 -29.625 52.8125 C-29.0095069 50.04278106 -28.11555626 47.6029646 -27 45 C-26.34 45 -25.68 45 -25 45 C-24.87625 44.071875 -24.7525 43.14375 -24.625 42.1875 C-24 39 -24 39 -22 36 C-21.34 36 -20.68 36 -20 36 C-20 34.68 -20 33.36 -20 32 C-19.34 32 -18.68 32 -18 32 C-16.515 27.545 -16.515 27.545 -15 23 C-14.34 23 -13.68 23 -13 23 C-13 22.01 -13 21.02 -13 20 C-12.34 20 -11.68 20 -11 20 C-11 18.68 -11 17.36 -11 16 C-10.34 16 -9.68 16 -9 16 C-8.67 14.35 -8.34 12.7 -8 11 C-7.34 11 -6.68 11 -6 11 C-6 9.68 -6 8.36 -6 7 C-5.34 7 -4.68 7 -4 7 C-4 6.01 -4 5.02 -4 4 C-3.34 4 -2.68 4 -2 4 C-2 3.34 -2 2.68 -2 2 C-1.34 2 -0.68 2 0 2 C0 1.34 0 0.68 0 0 Z " fill="#FEFEFE" transform="translate(797,542)"/>
<path d="M0 0 C0.66 0 1.32 0 2 0 C2 0.66 2 1.32 2 2 C2.66 2 3.32 2 4 2 C4.33 3.65 4.66 5.3 5 7 C3.68 6.67 2.36 6.34 1 6 C0.67 4.02 0.34 2.04 0 0 Z " fill="#8D8D8D" transform="translate(923,759)"/>
<path d="M0 0 C1.32 0.33 2.64 0.66 4 1 C4.33 2.98 4.66 4.96 5 7 C4.34 7 3.68 7 3 7 C3 6.34 3 5.68 3 5 C2.34 5 1.68 5 1 5 C0.67 3.35 0.34 1.7 0 0 Z " fill="#656565" transform="translate(820,580)"/>
</svg>
